<svg width="372" height="85" viewBox="0 0 372 85" fill="none" xmlns="http://www.w3.org/2000/svg">
<path d="M108.25 47.8672C108.25 47.138 108.497 46.526 108.992 46.0312C109.513 45.5104 110.138 45.25 110.867 45.25H116.844L115.828 42.3594C115.411 41.2917 114.995 40.2891 114.578 39.3516C114.188 38.388 113.732 37.5156 113.211 36.7344C112.742 35.9531 112.208 35.5365 111.609 35.4844C110.984 35.5365 110.424 35.9531 109.93 36.7344C109.435 37.5156 108.979 38.388 108.562 39.3516C108.172 40.2891 107.768 41.2917 107.352 42.3594L103.641 52.5156C103.38 53.0625 103.042 53.5182 102.625 53.8828C102.234 54.2214 101.635 54.3906 100.828 54.3906C100.073 54.3906 99.4479 54.1302 98.9531 53.6094C98.4844 53.0885 98.276 52.4635 98.3281 51.7344C98.3542 51.3958 98.4323 51.0833 98.5625 50.7969L102.859 39.7031C104.057 36.7865 105.255 34.4297 106.453 32.6328C107.625 30.862 109.344 29.9635 111.609 29.9375C113.849 29.9635 115.555 30.862 116.727 32.6328C117.924 34.3776 119.122 36.7344 120.32 39.7031L124.617 50.7969C124.747 51.0833 124.826 51.3958 124.852 51.7344C124.904 52.4635 124.682 53.0885 124.188 53.6094C123.719 54.1302 123.107 54.3906 122.352 54.3906C121.492 54.3906 120.854 54.2214 120.438 53.8828C120.047 53.5182 119.721 53.0625 119.461 52.5156L118.719 50.4844H110.867C110.138 50.4844 109.526 50.224 109.031 49.7031C108.51 49.2083 108.25 48.5964 108.25 47.8672ZM141.219 29.8203C142.573 29.8203 143.901 29.9766 145.203 30.2891C146.531 30.6016 147.794 31.0703 148.992 31.6953C150.19 32.2943 151.245 33.1016 152.156 34.1172C153.094 35.1328 153.602 36.3438 153.68 37.75V39.3906V51.8516C153.523 53.4141 152.664 54.2604 151.102 54.3906C150.372 54.3906 149.734 54.1562 149.188 53.6875C148.667 53.1927 148.406 52.5807 148.406 51.8516V38.9609C148.354 38.1536 148.042 37.4896 147.469 36.9688C146.922 36.4219 146.297 35.9922 145.594 35.6797C144.917 35.3672 144.201 35.1328 143.445 34.9766C142.716 34.8203 141.974 34.7422 141.219 34.7422C140.464 34.7422 139.708 34.8203 138.953 34.9766C138.224 35.1328 137.508 35.3672 136.805 35.6797C136.128 35.9922 135.503 36.4219 134.93 36.9688C134.383 37.4896 134.083 38.1536 134.031 38.9609V51.8516C133.901 53.4141 133.055 54.2604 131.492 54.3906C130.763 54.3906 130.125 54.1562 129.578 53.6875C129.057 53.1927 128.797 52.5807 128.797 51.8516V39.3906V37.75C128.875 36.3438 129.37 35.1328 130.281 34.1172C131.193 33.1016 132.247 32.2943 133.445 31.6953C134.643 31.0703 135.893 30.6016 137.195 30.2891C138.523 29.9766 139.865 29.8203 141.219 29.8203ZM173.758 30.25C174.461 30.276 175.06 30.5365 175.555 31.0312C176.049 31.5 176.31 32.0859 176.336 32.7891V39.3125H189.031V32.7891C189.057 32.0599 189.331 31.4609 189.852 30.9922C190.372 30.4974 190.997 30.25 191.727 30.25C192.43 30.276 193.029 30.5365 193.523 31.0312C194.018 31.5 194.279 32.0859 194.305 32.7891V51.9297C194.148 53.4922 193.289 54.3385 191.727 54.4688C190.997 54.4688 190.359 54.2344 189.812 53.7656C189.292 53.2708 189.031 52.6589 189.031 51.9297V44.5469H176.336V51.9297C176.18 53.4922 175.32 54.3385 173.758 54.4688C173.029 54.4688 172.391 54.2344 171.844 53.7656C171.323 53.2708 171.062 52.6589 171.062 51.9297V32.7891C171.089 32.0599 171.362 31.4609 171.883 30.9922C172.404 30.4974 173.029 30.25 173.758 30.25ZM206.414 30.875H208.211H221.492C222.221 30.901 222.82 31.1745 223.289 31.6953C223.784 32.2161 224.031 32.8411 224.031 33.5703C223.901 35.1328 223.055 35.9792 221.492 36.1094H207.742C206.753 36.1615 205.932 36.5391 205.281 37.2422C204.63 37.9453 204.148 38.7526 203.836 39.6641C203.549 40.5495 203.406 41.4609 203.406 42.3984C203.406 43.3359 203.549 44.2604 203.836 45.1719C204.148 46.0573 204.63 46.8516 205.281 47.5547C205.932 48.2578 206.753 48.6354 207.742 48.6875H221.492C222.221 48.7135 222.82 48.987 223.289 49.5078C223.784 50.0286 224.031 50.6536 224.031 51.3828C224.005 52.0859 223.745 52.6849 223.25 53.1797C222.781 53.6484 222.195 53.8958 221.492 53.9219H207.156H206.414C204.591 53.8177 203.081 53.1276 201.883 51.8516C200.711 50.5495 199.865 49.0781 199.344 47.4375C198.849 45.7969 198.602 44.1172 198.602 42.3984C198.602 40.6797 198.862 39 199.383 37.3594C199.904 35.7188 200.75 34.2604 201.922 32.9844C203.094 31.6823 204.591 30.9792 206.414 30.875ZM223.953 42.2422C223.953 42.9714 223.693 43.5833 223.172 44.0781C222.677 44.599 222.065 44.8594 221.336 44.8594H209.539C208.81 44.8594 208.185 44.612 207.664 44.1172C207.169 43.5964 206.922 42.9714 206.922 42.2422C206.922 41.513 207.169 40.888 207.664 40.3672C208.185 39.8724 208.81 39.625 209.539 39.625H221.336C222.065 39.625 222.677 39.8854 223.172 40.4062C223.693 40.901 223.953 41.513 223.953 42.2422ZM236.727 47.8672C236.727 47.138 236.974 46.526 237.469 46.0312C237.99 45.5104 238.615 45.25 239.344 45.25H245.32L244.305 42.3594C243.888 41.2917 243.471 40.2891 243.055 39.3516C242.664 38.388 242.208 37.5156 241.688 36.7344C241.219 35.9531 240.685 35.5365 240.086 35.4844C239.461 35.5365 238.901 35.9531 238.406 36.7344C237.911 37.5156 237.456 38.388 237.039 39.3516C236.648 40.2891 236.245 41.2917 235.828 42.3594L232.117 52.5156C231.857 53.0625 231.518 53.5182 231.102 53.8828C230.711 54.2214 230.112 54.3906 229.305 54.3906C228.549 54.3906 227.924 54.1302 227.43 53.6094C226.961 53.0885 226.753 52.4635 226.805 51.7344C226.831 51.3958 226.909 51.0833 227.039 50.7969L231.336 39.7031C232.534 36.7865 233.732 34.4297 234.93 32.6328C236.102 30.862 237.82 29.9635 240.086 29.9375C242.326 29.9635 244.031 30.862 245.203 32.6328C246.401 34.3776 247.599 36.7344 248.797 39.7031L253.094 50.7969C253.224 51.0833 253.302 51.3958 253.328 51.7344C253.38 52.4635 253.159 53.0885 252.664 53.6094C252.195 54.1302 251.583 54.3906 250.828 54.3906C249.969 54.3906 249.331 54.2214 248.914 53.8828C248.523 53.5182 248.198 53.0625 247.938 52.5156L247.195 50.4844H239.344C238.615 50.4844 238.003 50.224 237.508 49.7031C236.987 49.2083 236.727 48.5964 236.727 47.8672ZM264.695 51.8516C263.497 50.0547 262.299 47.6979 261.102 44.7812L256.805 33.6875C256.674 33.401 256.596 33.0885 256.57 32.75C256.518 32.0208 256.727 31.3958 257.195 30.875C257.69 30.3542 258.315 30.0938 259.07 30.0938C259.878 30.0938 260.477 30.276 260.867 30.6406C261.284 30.9792 261.622 31.4219 261.883 31.9688L265.594 42.125C266.01 43.1927 266.414 44.2083 266.805 45.1719C267.221 46.1094 267.677 46.9688 268.172 47.75C268.667 48.5312 269.227 48.9479 269.852 49C270.451 48.9479 270.984 48.5312 271.453 47.75C271.974 46.9688 272.43 46.1094 272.82 45.1719C273.237 44.2083 273.654 43.1927 274.07 42.125L277.703 31.9688C277.964 31.4219 278.289 30.9792 278.68 30.6406C279.096 30.276 279.734 30.0938 280.594 30.0938C281.349 30.0938 281.961 30.3542 282.43 30.875C282.924 31.3958 283.146 32.0208 283.094 32.75C283.068 33.0885 282.99 33.401 282.859 33.6875L278.562 44.7812C277.365 47.75 276.167 50.1198 274.969 51.8906C273.797 53.6354 272.091 54.5208 269.852 54.5469C267.586 54.5208 265.867 53.6224 264.695 51.8516ZM294.383 30.875H296.18H309.461C310.19 30.901 310.789 31.1745 311.258 31.6953C311.753 32.2161 312 32.8411 312 33.5703C311.87 35.1328 311.023 35.9792 309.461 36.1094H295.711C294.721 36.1615 293.901 36.5391 293.25 37.2422C292.599 37.9453 292.117 38.7526 291.805 39.6641C291.518 40.5495 291.375 41.4609 291.375 42.3984C291.375 43.3359 291.518 44.2604 291.805 45.1719C292.117 46.0573 292.599 46.8516 293.25 47.5547C293.901 48.2578 294.721 48.6354 295.711 48.6875H309.461C310.19 48.7135 310.789 48.987 311.258 49.5078C311.753 50.0286 312 50.6536 312 51.3828C311.974 52.0859 311.714 52.6849 311.219 53.1797C310.75 53.6484 310.164 53.8958 309.461 53.9219H295.125H294.383C292.56 53.8177 291.049 53.1276 289.852 51.8516C288.68 50.5495 287.833 49.0781 287.312 47.4375C286.818 45.7969 286.57 44.1172 286.57 42.3984C286.57 40.6797 286.831 39 287.352 37.3594C287.872 35.7188 288.719 34.2604 289.891 32.9844C291.062 31.6823 292.56 30.9792 294.383 30.875ZM311.922 42.2422C311.922 42.9714 311.661 43.5833 311.141 44.0781C310.646 44.599 310.034 44.8594 309.305 44.8594H297.508C296.779 44.8594 296.154 44.612 295.633 44.1172C295.138 43.5964 294.891 42.9714 294.891 42.2422C294.891 41.513 295.138 40.888 295.633 40.3672C296.154 39.8724 296.779 39.625 297.508 39.625H309.305C310.034 39.625 310.646 39.8854 311.141 40.4062C311.661 40.901 311.922 41.513 311.922 42.2422ZM328.367 29.8203C329.721 29.8203 331.049 29.9766 332.352 30.2891C333.68 30.6016 334.943 31.0703 336.141 31.6953C337.339 32.2943 338.393 33.1016 339.305 34.1172C340.242 35.1328 340.75 36.3438 340.828 37.75V39.3906V51.8516C340.672 53.4141 339.812 54.2604 338.25 54.3906C337.521 54.3906 336.883 54.1562 336.336 53.6875C335.815 53.1927 335.555 52.5807 335.555 51.8516V38.9609C335.503 38.1536 335.19 37.4896 334.617 36.9688C334.07 36.4219 333.445 35.9922 332.742 35.6797C332.065 35.3672 331.349 35.1328 330.594 34.9766C329.865 34.8203 329.122 34.7422 328.367 34.7422C327.612 34.7422 326.857 34.8203 326.102 34.9766C325.372 35.1328 324.656 35.3672 323.953 35.6797C323.276 35.9922 322.651 36.4219 322.078 36.9688C321.531 37.4896 321.232 38.1536 321.18 38.9609V51.8516C321.049 53.4141 320.203 54.2604 318.641 54.3906C317.911 54.3906 317.273 54.1562 316.727 53.6875C316.206 53.1927 315.945 52.5807 315.945 51.8516V39.3906V37.75C316.023 36.3438 316.518 35.1328 317.43 34.1172C318.341 33.1016 319.396 32.2943 320.594 31.6953C321.792 31.0703 323.042 30.6016 324.344 30.2891C325.672 29.9766 327.013 29.8203 328.367 29.8203Z" fill="#E2E8F0"/>
<path d="M162.273 46.7344C161.57 46.7083 160.971 46.4609 160.477 45.9922C159.982 45.4974 159.721 44.8984 159.695 44.1953V30.6797C159.852 29.1172 160.711 28.2708 162.273 28.1406C163.003 28.1406 163.628 28.388 164.148 28.8828C164.695 29.3516 164.969 29.9505 164.969 30.6797V44.1953C164.943 44.9245 164.669 45.5365 164.148 46.0312C163.628 46.5 163.003 46.7344 162.273 46.7344ZM165.555 51.8125C165.555 52.5417 165.242 53.1667 164.617 53.6875C163.992 54.2083 163.237 54.4688 162.352 54.4688C161.466 54.4688 160.711 54.2083 160.086 53.6875C159.461 53.1667 159.148 52.5417 159.148 51.8125C159.148 51.0573 159.461 50.4193 160.086 49.8984C160.711 49.3776 161.466 49.1172 162.352 49.1172C163.237 49.1172 163.992 49.3776 164.617 49.8984C165.242 50.4193 165.555 51.0573 165.555 51.8125Z" fill="#8A64DD"/>
<rect width="84.6364" height="84.6364" rx="20" fill="url(#paint0_linear_8_22)"/>
<g filter="url(#filter0_dd_8_22)">
<rect x="29.6459" y="13.1657" width="7.22522" height="54.9789" rx="2" fill="#D9D9D9"/>
<rect width="6.78719" height="42.6584" rx="2" transform="matrix(0.765885 0.642977 -0.742989 0.669304 60.8455 18.2753)" fill="#D9D9D9"/>
<rect width="6.45232" height="46.5318" rx="2" transform="matrix(-0.460577 0.88762 -0.930891 -0.365298 65.0959 34.8761)" fill="#D9D9D9"/>
<rect width="7.22521" height="41.3267" rx="2" transform="matrix(-0.999996 -0.00270624 0.00357842 -0.999994 56.7405 71.7907)" fill="#D9D9D9"/>
</g>
<defs>
<filter id="filter0_dd_8_22" x="15.5134" y="13.1657" width="53.6467" height="66.6197" filterUnits="userSpaceOnUse" color-interpolation-filters="sRGB">
<feFlood flood-opacity="0" result="BackgroundImageFix"/>
<feColorMatrix in="SourceAlpha" type="matrix" values="0 0 0 0 0 0 0 0 0 0 0 0 0 0 0 0 0 0 127 0" result="hardAlpha"/>
<feOffset dy="4"/>
<feGaussianBlur stdDeviation="2"/>
<feComposite in2="hardAlpha" operator="out"/>
<feColorMatrix type="matrix" values="0 0 0 0 0 0 0 0 0 0 0 0 0 0 0 0 0 0 0.25 0"/>
<feBlend mode="normal" in2="BackgroundImageFix" result="effect1_dropShadow_8_22"/>
<feColorMatrix in="SourceAlpha" type="matrix" values="0 0 0 0 0 0 0 0 0 0 0 0 0 0 0 0 0 0 127 0" result="hardAlpha"/>
<feOffset dy="4"/>
<feGaussianBlur stdDeviation="2"/>
<feComposite in2="hardAlpha" operator="out"/>
<feColorMatrix type="matrix" values="0 0 0 0 0 0 0 0 0 0 0 0 0 0 0 0 0 0 0.25 0"/>
<feBlend mode="normal" in2="effect1_dropShadow_8_22" result="effect2_dropShadow_8_22"/>
<feBlend mode="normal" in="SourceGraphic" in2="effect2_dropShadow_8_22" result="shape"/>
</filter>
<linearGradient id="paint0_linear_8_22" x1="78.0536" y1="5.17223" x2="8.93384" y2="71.9409" gradientUnits="userSpaceOnUse">
<stop stop-color="#8C65E0"/>
<stop offset="1" stop-color="#553C99"/>
</linearGradient>
</defs>
</svg>
